<?xml version="1.0" standalone="no"?><!DOCTYPE svg PUBLIC "-//W3C//DTD SVG 1.1//EN" "http://www.w3.org/Graphics/SVG/1.1/DTD/svg11.dtd"><svg class="icon" height="512" viewBox="0 0 1024 1024" version="1.1" xmlns="http://www.w3.org/2000/svg"><path d="M112.812032 964.651008c-45.218816 0-82.006016-36.7872-82.006016-82.004992L30.806016 141.353984c0-45.217792 36.7872-82.004992 82.006016-82.004992L723.968 59.348992c45.217792 0 82.006016 36.7872 82.006016 82.004992l0 10.19904L746.40384 151.553024l0-10.19904c0-12.372992-10.064896-22.44096-22.43584-22.44096L112.812032 118.913024c-12.374016 0-22.44096 10.067968-22.44096 22.44096l0 741.292032c0 12.374016 10.066944 22.44096 22.44096 22.44096l611.131392 0c12.370944 0 22.43584-10.066944 22.43584-22.44096l0-10.200064 0.024576 0L746.40384 711.344128l59.570176 0 0 171.301888c0 45.217792-36.788224 82.004992-82.006016 82.004992L112.812032 964.651008zM551.918592 806.47168c-5.951488 0-11.706368-1.758208-16.638976-5.085184-9.887744-6.670336-14.831616-18.56-12.594176-30.291968l27.337728-142.911488c0.22528-1.183744 0.612352-2.16064 0.96768-2.884608 0.65024-2.373632 1.522688-4.872192 3.076096-7.369728l238.743552-377.61024c0.13312-0.228352 0.275456-0.449536 0.423936-0.666624 0.041984-0.069632 0.267264-0.436224 0.267264-0.436224l35.10784-50.690048c3.083264-4.216832 19.999744-25.253888 50.4832-25.253888 10.412032 0 20.941824 2.54976 31.295488 7.578624 29.997056 14.592 56.841216 34.972672 59.802624 37.248 2.480128 1.929216 4.557824 4.107264 6.221824 6.51264 2.697216 3.833856 26.2144 38.897664 7.661568 69.385216-7.673856 12.573696-28.662784 43.39712-34.97984 52.64384L697.52832 715.359232c-1.429504 2.139136-3.109888 3.400704-4.013056 4.079616l-0.068608 0.052224c-0.060416 0.075776-0.123904 0.159744-0.18944 0.241664-0.82432 1.033216-2.203648 2.763776-4.41344 4.189184l-120.799232 77.817856C563.170304 804.844544 557.60896 806.47168 551.918592 806.47168zM594.245632 713.91232l24.989696-16.094208-19.33312-13.451264L594.245632 713.91232zM664.790016 656.949248l214.342656-322.68288-52.4032-36.227072L619.675648 625.531904 664.790016 656.949248zM912.260096 284.75904c8.815616-13.080576 15.169536-22.683648 18.97472-28.673024-0.401408-1.130496-0.986112-2.556928-1.70496-4.015104-9.817088-7.085056-27.235328-18.931712-45.181952-27.649024-1.393664-0.676864-2.702336-1.006592-3.995648-1.006592-1.975296 0-3.58912 0.797696-4.42368 1.312768l-16.350208 23.624704L912.260096 284.75904zM151.114752 688.813056c-16.421888 0-29.782016-13.360128-29.782016-29.782016s13.360128-29.782016 29.782016-29.782016l211.00544 0c16.422912 0 29.782016 13.360128 29.782016 29.782016s-13.359104 29.782016-29.782016 29.782016L151.114752 688.813056zM151.114752 493.11232c-16.421888 0-29.782016-13.359104-29.782016-29.782016 0-16.421888 13.360128-29.782016 29.782016-29.782016L501.84192 433.548288c16.422912 0 29.782016 13.360128 29.782016 29.782016 0 16.422912-13.359104 29.782016-29.782016 29.782016L151.114752 493.11232zM151.114752 298.660864c-16.421888 0-29.782016-13.360128-29.782016-29.780992 0-16.422912 13.360128-29.78304 29.782016-29.78304l490.469376 0c16.42496 0 29.787136 13.360128 29.787136 29.78304 0 16.420864-13.362176 29.780992-29.787136 29.780992L151.114752 298.660864z" /></svg>